<?xml version="1.0" standalone="no"?>
<!DOCTYPE svg PUBLIC "-//W3C//DTD SVG 20010904//EN"
 "http://www.w3.org/TR/2001/REC-SVG-20010904/DTD/svg10.dtd">
<svg version="1.0" xmlns="http://www.w3.org/2000/svg"
 width="361.000000pt" height="361.000000pt" viewBox="0 0 361.000000 361.000000"
 preserveAspectRatio="xMidYMid meet">

<g transform="translate(0.000000,361.000000) scale(0.100000,-0.100000)"
fill="#000000" stroke="none">
<path d="M615 3594 c-11 -2 -45 -9 -75 -15 -30 -6 -97 -31 -149 -56 -169 -81
-301 -237 -361 -428 l-25 -80 -3 -1145 c-2 -784 0 -1175 8 -1239 20 -180 78
-299 205 -426 62 -62 99 -90 165 -123 166 -83 64 -77 1425 -77 1350 0 1257 -5
1404 70 176 88 291 220 358 410 l28 80 0 1235 0 1235 -27 78 c-69 203 -217
361 -408 437 -123 49 -126 49 -1365 48 -638 0 -1169 -2 -1180 -4z m1843 -1080
c356 -207 653 -382 660 -388 9 -9 12 -57 10 -198 l-3 -185 -661 383 -662 383
-496 -286 -496 -286 0 -293 0 -294 995 0 995 0 0 150 c0 83 3 150 6 150 3 0
78 -43 165 -96 l159 -95 0 -375 0 -374 -170 0 -170 0 0 145 0 145 -990 0 -990
0 0 -145 0 -145 -170 0 -170 0 0 704 c0 620 2 705 15 716 23 19 1308 760 1318
760 4 0 299 -169 655 -376z m-693 -579 l0 -120 -115 0 -115 0 -3 109 c-1 61 0
116 2 123 4 11 31 13 118 11 l113 -3 0 -120z m300 0 l0 -120 -115 0 -115 0 -3
109 c-1 61 0 116 2 123 4 11 31 13 118 11 l113 -3 0 -120z m-295 -285 l0 -120
-120 0 -120 0 0 120 0 120 120 0 120 0 0 -120z m300 0 l0 -120 -120 0 -120 0
0 120 0 120 120 0 120 0 0 -120z"/>
</g>
</svg>
